<svg width="126" height="38" viewBox="0 0 126 38" fill="none" xmlns="http://www.w3.org/2000/svg">
<path d="M22.4533 16.78C21.9754 18.6917 19 17.7204 18.075 17.4583L18.9229 14.0975C19.8787 14.375 22.9466 14.7758 22.4533 16.78ZM17.6587 19.185L16.7337 22.9004C17.8746 23.1933 21.405 24.3188 21.9291 22.2221C22.4841 20.0329 18.7996 19.4625 17.6587 19.185ZM33.9541 22.7308C31.8883 30.9942 23.5325 36.02 15.2691 33.9542C7.00581 31.8883 1.98461 23.5325 4.04582 15.2692C4.53551 13.3052 5.40731 11.457 6.61141 9.83001C7.81551 8.20304 9.32833 6.82921 11.0635 5.78699C12.7986 4.74477 14.722 4.05457 16.7239 3.75582C18.7258 3.45707 20.767 3.55562 22.7308 4.04584C30.9787 6.11167 36.0046 14.4675 33.9541 22.7308ZM22.4071 12.9104L23.1008 10.1354L21.405 9.75L20.7266 12.4171C20.2796 12.3092 19.8325 12.2013 19.37 12.1088L20.0483 9.38L18.3679 8.97917L17.6741 11.7388C17.3041 11.6463 16.9341 11.5692 16.595 11.4767L14.2671 10.8908L13.8046 12.6946C13.8046 12.6946 15.0687 12.9875 15.0379 13.0029C15.7316 13.1725 15.855 13.6042 15.8241 13.9896L13.9279 21.59C13.8508 21.8058 13.6041 22.0833 13.1571 22.0063C13.1725 22.0217 11.9237 21.6979 11.9237 21.6979L11.0912 23.625L13.2804 24.18C13.6966 24.2879 14.0975 24.3958 14.4983 24.4883L13.7891 27.2942L15.485 27.7258L16.1787 24.9354C16.6412 25.0588 17.0883 25.1667 17.52 25.29L16.8262 28.0496L18.5221 28.4813L19.2312 25.6754C22.0833 26.215 24.2725 25.9992 25.1666 23.3938C25.9375 21.3125 25.1666 20.0792 23.625 19.2929C24.735 19 25.5675 18.3063 25.7987 16.7954C26.1071 14.745 24.5346 13.6504 22.4071 12.9104Z" fill="#888888"/>
<path d="M52.116 27.788C51.22 27.788 50.436 27.62 49.764 27.284C49.092 26.948 48.548 26.476 48.132 25.868L47.796 27.5H45.06V10.22H48.132V17.3C48.516 16.772 49.02 16.308 49.644 15.908C50.284 15.508 51.108 15.308 52.116 15.308C53.236 15.308 54.236 15.58 55.116 16.124C55.996 16.668 56.692 17.412 57.204 18.356C57.716 19.3 57.972 20.372 57.972 21.572C57.972 22.772 57.716 23.844 57.204 24.788C56.692 25.716 55.996 26.452 55.116 26.996C54.236 27.524 53.236 27.788 52.116 27.788ZM51.468 25.1C52.444 25.1 53.252 24.772 53.892 24.116C54.532 23.46 54.852 22.612 54.852 21.572C54.852 20.532 54.532 19.676 53.892 19.004C53.252 18.332 52.444 17.996 51.468 17.996C50.476 17.996 49.66 18.332 49.02 19.004C48.396 19.66 48.084 20.508 48.084 21.548C48.084 22.588 48.396 23.444 49.02 24.116C49.66 24.772 50.476 25.1 51.468 25.1ZM62.3723 13.748C61.8123 13.748 61.3483 13.58 60.9803 13.244C60.6283 12.908 60.4523 12.484 60.4523 11.972C60.4523 11.46 60.6283 11.044 60.9803 10.724C61.3483 10.388 61.8123 10.22 62.3723 10.22C62.9323 10.22 63.3883 10.388 63.7403 10.724C64.1083 11.044 64.2923 11.46 64.2923 11.972C64.2923 12.484 64.1083 12.908 63.7403 13.244C63.3883 13.58 62.9323 13.748 62.3723 13.748ZM60.8363 27.5V15.596H63.9083V27.5H60.8363ZM72.4187 27.5C71.1707 27.5 70.1707 27.196 69.4187 26.588C68.6667 25.98 68.2907 24.9 68.2907 23.348V18.164H66.2507V15.596H68.2907L68.6507 12.404H71.3627V15.596H74.5787V18.164H71.3627V23.372C71.3627 23.948 71.4827 24.348 71.7227 24.572C71.9787 24.78 72.4107 24.884 73.0187 24.884H74.5067V27.5H72.4187ZM82.7436 27.788C81.5276 27.788 80.4556 27.524 79.5276 26.996C78.5996 26.468 77.8636 25.732 77.3196 24.788C76.7916 23.844 76.5276 22.764 76.5276 21.548C76.5276 20.332 76.7916 19.252 77.3196 18.308C77.8636 17.364 78.5996 16.628 79.5276 16.1C80.4556 15.572 81.5276 15.308 82.7436 15.308C84.2636 15.308 85.5436 15.708 86.5836 16.508C87.6236 17.292 88.2876 18.38 88.5756 19.772H85.3356C85.1756 19.196 84.8556 18.748 84.3756 18.428C83.9116 18.092 83.3596 17.924 82.7196 17.924C81.8716 17.924 81.1516 18.244 80.5596 18.884C79.9676 19.524 79.6716 20.412 79.6716 21.548C79.6716 22.684 79.9676 23.572 80.5596 24.212C81.1516 24.852 81.8716 25.172 82.7196 25.172C83.3596 25.172 83.9116 25.012 84.3756 24.692C84.8556 24.372 85.1756 23.916 85.3356 23.324H88.5756C88.2876 24.668 87.6236 25.748 86.5836 26.564C85.5436 27.38 84.2636 27.788 82.7436 27.788ZM97.0142 27.788C95.8622 27.788 94.8222 27.524 93.8942 26.996C92.9822 26.468 92.2542 25.74 91.7102 24.812C91.1822 23.868 90.9182 22.78 90.9182 21.548C90.9182 20.316 91.1902 19.236 91.7342 18.308C92.2782 17.364 93.0062 16.628 93.9182 16.1C94.8462 15.572 95.8862 15.308 97.0382 15.308C98.1742 15.308 99.1982 15.572 100.11 16.1C101.038 16.628 101.766 17.364 102.294 18.308C102.838 19.236 103.11 20.316 103.11 21.548C103.11 22.78 102.838 23.868 102.294 24.812C101.766 25.74 101.038 26.468 100.11 26.996C99.1822 27.524 98.1502 27.788 97.0142 27.788ZM97.0142 25.124C97.8142 25.124 98.5102 24.828 99.1022 24.236C99.6942 23.628 99.9902 22.732 99.9902 21.548C99.9902 20.364 99.6942 19.476 99.1022 18.884C98.5102 18.276 97.8222 17.972 97.0382 17.972C96.2222 17.972 95.5182 18.276 94.9262 18.884C94.3502 19.476 94.0622 20.364 94.0622 21.548C94.0622 22.732 94.3502 23.628 94.9262 24.236C95.5182 24.828 96.2142 25.124 97.0142 25.124ZM107.513 13.748C106.953 13.748 106.489 13.58 106.121 13.244C105.769 12.908 105.593 12.484 105.593 11.972C105.593 11.46 105.769 11.044 106.121 10.724C106.489 10.388 106.953 10.22 107.513 10.22C108.073 10.22 108.529 10.388 108.881 10.724C109.249 11.044 109.433 11.46 109.433 11.972C109.433 12.484 109.249 12.908 108.881 13.244C108.529 13.58 108.073 13.748 107.513 13.748ZM105.977 27.5V15.596H109.049V27.5H105.977ZM112.255 27.5V15.596H114.967L115.207 17.612C115.575 16.908 116.103 16.348 116.791 15.932C117.495 15.516 118.319 15.308 119.263 15.308C120.735 15.308 121.879 15.772 122.695 16.7C123.511 17.628 123.919 18.988 123.919 20.78V27.5H120.847V21.068C120.847 20.044 120.639 19.26 120.223 18.716C119.807 18.172 119.159 17.9 118.279 17.9C117.415 17.9 116.703 18.204 116.143 18.812C115.599 19.42 115.327 20.268 115.327 21.356V27.5H112.255Z" fill="#888888"/>
</svg>
