<svg width="133" height="30" viewBox="0 0 133 30" fill="none" xmlns="http://www.w3.org/2000/svg">
<path d="M10 1.875L9.82001 2.45625V19.1062L10 19.275L18 14.7L10 1.875Z" fill="#888888"/>
<path d="M10 1.875L2 14.7L10 19.275V1.875ZM10 21.7875L9.9 21.9V27.8438L10 28.125L18 17.2312L10 21.8062V21.7875Z" fill="#888888"/>
<path d="M10 28.125V21.7875L2 17.2125L10 28.1063V28.125ZM10 19.275L18 14.7L10 11.1938V19.275ZM2 14.7L10 19.275V11.1938L2 14.7Z" fill="#888888"/>
<path d="M29.496 22V6.6H39.55V8.866H32.312V13.09H38.89V15.29H32.312V19.734H39.55V22H29.496ZM47.0108 22C45.8668 22 44.9501 21.7213 44.2608 21.164C43.5714 20.6067 43.2268 19.6167 43.2268 18.194V13.442H41.3568V11.088H43.2268L43.5568 8.162H46.0428V11.088H48.9908V13.442H46.0428V18.216C46.0428 18.744 46.1528 19.1107 46.3727 19.316C46.6074 19.5067 47.0034 19.602 47.5608 19.602H48.9248V22H47.0108ZM51.4085 22V6.16H54.2245V12.76C54.5912 12.1587 55.0825 11.6893 55.6985 11.352C56.3292 11 57.0478 10.824 57.8545 10.824C59.2038 10.824 60.2452 11.2493 60.9785 12.1C61.7265 12.9507 62.1005 14.1973 62.1005 15.84V22H59.3065V16.104C59.3065 15.1653 59.1158 14.4467 58.7345 13.948C58.3678 13.4493 57.7812 13.2 56.9745 13.2C56.1825 13.2 55.5225 13.4787 54.9945 14.036C54.4812 14.5933 54.2245 15.3707 54.2245 16.368V22H51.4085ZM70.0953 22.264C68.9953 22.264 68.0199 22.0293 67.1693 21.56C66.3186 21.0907 65.6513 20.4307 65.1673 19.58C64.6833 18.7293 64.4413 17.7467 64.4413 16.632C64.4413 15.5027 64.6759 14.498 65.1453 13.618C65.6293 12.738 66.2893 12.056 67.1253 11.572C67.9759 11.0733 68.9733 10.824 70.1173 10.824C71.1879 10.824 72.1339 11.0587 72.9553 11.528C73.7766 11.9973 74.4146 12.6427 74.8693 13.464C75.3386 14.2707 75.5733 15.1727 75.5733 16.17C75.5733 16.3313 75.5659 16.5 75.5513 16.676C75.5513 16.852 75.5439 17.0353 75.5293 17.226H67.2353C67.2939 18.0767 67.5873 18.744 68.1153 19.228C68.6579 19.712 69.3106 19.954 70.0733 19.954C70.6453 19.954 71.1219 19.8293 71.5033 19.58C71.8993 19.316 72.1926 18.9787 72.3833 18.568H75.2433C75.0379 19.2573 74.6933 19.888 74.2093 20.46C73.7399 21.0173 73.1533 21.4573 72.4493 21.78C71.7599 22.1027 70.9753 22.264 70.0953 22.264ZM70.1173 13.112C69.4279 13.112 68.8193 13.31 68.2913 13.706C67.7633 14.0873 67.4259 14.674 67.2793 15.466H72.7133C72.6693 14.7473 72.4053 14.1753 71.9213 13.75C71.4373 13.3247 70.8359 13.112 70.1173 13.112ZM77.9417 22V11.088H80.4497L80.7137 13.134C81.1097 12.43 81.6451 11.8727 82.3197 11.462C83.0091 11.0367 83.8157 10.824 84.7397 10.824V13.794H83.9477C83.3317 13.794 82.7817 13.8893 82.2977 14.08C81.8137 14.2707 81.4324 14.6007 81.1537 15.07C80.8897 15.5393 80.7577 16.192 80.7577 17.028V22H77.9417ZM91.773 22.264C90.673 22.264 89.6977 22.0293 88.847 21.56C87.9963 21.0907 87.329 20.4307 86.845 19.58C86.361 18.7293 86.119 17.7467 86.119 16.632C86.119 15.5027 86.3537 14.498 86.823 13.618C87.307 12.738 87.967 12.056 88.803 11.572C89.6537 11.0733 90.651 10.824 91.795 10.824C92.8657 10.824 93.8117 11.0587 94.633 11.528C95.4543 11.9973 96.0923 12.6427 96.547 13.464C97.0163 14.2707 97.251 15.1727 97.251 16.17C97.251 16.3313 97.2437 16.5 97.229 16.676C97.229 16.852 97.2217 17.0353 97.207 17.226H88.913C88.9717 18.0767 89.265 18.744 89.793 19.228C90.3357 19.712 90.9883 19.954 91.751 19.954C92.323 19.954 92.7997 19.8293 93.181 19.58C93.577 19.316 93.8703 18.9787 94.061 18.568H96.921C96.7157 19.2573 96.371 19.888 95.887 20.46C95.4177 21.0173 94.831 21.4573 94.127 21.78C93.4377 22.1027 92.653 22.264 91.773 22.264ZM91.795 13.112C91.1057 13.112 90.497 13.31 89.969 13.706C89.441 14.0873 89.1037 14.674 88.957 15.466H94.391C94.347 14.7473 94.083 14.1753 93.599 13.75C93.115 13.3247 92.5137 13.112 91.795 13.112ZM103.711 22.264C102.347 22.264 101.291 21.8387 100.543 20.988C99.8101 20.1373 99.4435 18.8907 99.4435 17.248V11.088H102.237V16.984C102.237 17.9227 102.428 18.6413 102.809 19.14C103.191 19.6387 103.792 19.888 104.613 19.888C105.391 19.888 106.029 19.6093 106.527 19.052C107.041 18.4947 107.297 17.7173 107.297 16.72V11.088H110.113V22H107.627L107.407 20.152C107.07 20.7973 106.579 21.3107 105.933 21.692C105.303 22.0733 104.562 22.264 103.711 22.264ZM113.004 22V11.088H115.49L115.732 12.562C116.084 12.034 116.546 11.616 117.118 11.308C117.705 10.9853 118.38 10.824 119.142 10.824C120.829 10.824 122.024 11.4767 122.728 12.782C123.124 12.1807 123.652 11.704 124.312 11.352C124.987 11 125.72 10.824 126.512 10.824C127.935 10.824 129.028 11.2493 129.79 12.1C130.553 12.9507 130.934 14.1973 130.934 15.84V22H128.118V16.104C128.118 15.1653 127.935 14.4467 127.568 13.948C127.216 13.4493 126.666 13.2 125.918 13.2C125.156 13.2 124.54 13.4787 124.07 14.036C123.616 14.5933 123.388 15.3707 123.388 16.368V22H120.572V16.104C120.572 15.1653 120.389 14.4467 120.022 13.948C119.656 13.4493 119.091 13.2 118.328 13.2C117.58 13.2 116.972 13.4787 116.502 14.036C116.048 14.5933 115.82 15.3707 115.82 16.368V22H113.004Z" fill="#888888"/>
</svg>
