<svg width="125" height="30" viewBox="0 0 125 30" fill="none" xmlns="http://www.w3.org/2000/svg">
<g clip-path="url(#clip0_3_252)">
<path d="M14 1.5C11.33 1.5 8.71987 2.29176 6.49981 3.77516C4.27974 5.25856 2.54942 7.36697 1.52763 9.83377C0.505849 12.3006 0.238504 15.015 0.759405 17.6337C1.28031 20.2525 2.56606 22.6579 4.45406 24.5459C6.34207 26.434 8.74754 27.7197 11.3663 28.2406C13.985 28.7615 16.6994 28.4942 19.1662 27.4724C21.633 26.4506 23.7414 24.7203 25.2248 22.5002C26.7082 20.2801 27.5 17.67 27.5 15C27.5 11.4196 26.0777 7.9858 23.5459 5.45406C21.0142 2.92232 17.5804 1.5 14 1.5ZM13.7053 5.63775H16.6123C16.6717 5.63782 16.7304 5.65164 16.7836 5.67812C16.8369 5.7046 16.8833 5.74303 16.9192 5.79041C16.9551 5.83778 16.9796 5.89282 16.9908 5.95123C17.002 6.00964 16.9995 6.06984 16.9835 6.12712L14.6998 13.9099L16.8429 13.2551L16.3839 14.8132L14.2194 15.4432L12.8154 20.184H20.3259C20.3854 20.1843 20.444 20.1984 20.4972 20.2252C20.5504 20.2519 20.5967 20.2906 20.6324 20.3382C20.6681 20.3858 20.6924 20.4411 20.7032 20.4996C20.714 20.5581 20.7112 20.6184 20.6949 20.6756L20.0401 22.9256C20.0086 23.0326 19.9434 23.1265 19.8542 23.1934C19.765 23.2603 19.6566 23.2966 19.5451 23.2969H8.07463L10.013 16.7471L7.86876 17.3996L8.34126 15.8685L10.49 15.216L13.2148 6.0135C13.2446 5.90589 13.3088 5.81097 13.3975 5.74316C13.4863 5.67534 13.5947 5.63833 13.7064 5.63775" fill="#888888"/>
</g>
<path d="M39.996 22.5V7.1H42.812V20.3H49.632V22.5H39.996ZM53.5652 9.894C53.0519 9.894 52.6265 9.74 52.2892 9.432C51.9665 9.124 51.8052 8.73533 51.8052 8.266C51.8052 7.79667 51.9665 7.41533 52.2892 7.122C52.6265 6.814 53.0519 6.66 53.5652 6.66C54.0785 6.66 54.4965 6.814 54.8192 7.122C55.1565 7.41533 55.3252 7.79667 55.3252 8.266C55.3252 8.73533 55.1565 9.124 54.8192 9.432C54.4965 9.74 54.0785 9.894 53.5652 9.894ZM52.1572 22.5V11.588H54.9732V22.5H52.1572ZM62.7744 22.5C61.6304 22.5 60.7138 22.2213 60.0244 21.664C59.3351 21.1067 58.9904 20.1167 58.9904 18.694V13.942H57.1204V11.588H58.9904L59.3204 8.662H61.8064V11.588H64.7544V13.942H61.8064V18.716C61.8064 19.244 61.9164 19.6107 62.1364 19.816C62.3711 20.0067 62.7671 20.102 63.3244 20.102H64.6884V22.5H62.7744ZM72.1949 22.764C71.0949 22.764 70.1196 22.5293 69.2689 22.06C68.4182 21.5907 67.7509 20.9307 67.2669 20.08C66.7829 19.2293 66.5409 18.2467 66.5409 17.132C66.5409 16.0027 66.7756 14.998 67.2449 14.118C67.7289 13.238 68.3889 12.556 69.2249 12.072C70.0756 11.5733 71.0729 11.324 72.2169 11.324C73.2876 11.324 74.2336 11.5587 75.0549 12.028C75.8762 12.4973 76.5142 13.1427 76.9689 13.964C77.4382 14.7707 77.6729 15.6727 77.6729 16.67C77.6729 16.8313 77.6656 17 77.6509 17.176C77.6509 17.352 77.6436 17.5353 77.6289 17.726H69.3349C69.3936 18.5767 69.6869 19.244 70.2149 19.728C70.7576 20.212 71.4102 20.454 72.1729 20.454C72.7449 20.454 73.2216 20.3293 73.6029 20.08C73.9989 19.816 74.2922 19.4787 74.4829 19.068H77.3429C77.1376 19.7573 76.7929 20.388 76.3089 20.96C75.8396 21.5173 75.2529 21.9573 74.5489 22.28C73.8596 22.6027 73.0749 22.764 72.1949 22.764ZM72.2169 13.612C71.5276 13.612 70.9189 13.81 70.3909 14.206C69.8629 14.5873 69.5256 15.174 69.3789 15.966H74.8129C74.7689 15.2473 74.5049 14.6753 74.0209 14.25C73.5369 13.8247 72.9356 13.612 72.2169 13.612ZM85.3873 22.764C84.2727 22.764 83.29 22.522 82.4393 22.038C81.5887 21.554 80.914 20.8793 80.4153 20.014C79.9313 19.1487 79.6893 18.1587 79.6893 17.044C79.6893 15.9293 79.9313 14.9393 80.4153 14.074C80.914 13.2087 81.5887 12.534 82.4393 12.05C83.29 11.566 84.2727 11.324 85.3873 11.324C86.7807 11.324 87.954 11.6907 88.9073 12.424C89.8607 13.1427 90.4693 14.14 90.7333 15.416H87.7633C87.6167 14.888 87.3233 14.4773 86.8833 14.184C86.458 13.876 85.952 13.722 85.3653 13.722C84.588 13.722 83.928 14.0153 83.3853 14.602C82.8427 15.1887 82.5713 16.0027 82.5713 17.044C82.5713 18.0853 82.8427 18.8993 83.3853 19.486C83.928 20.0727 84.588 20.366 85.3653 20.366C85.952 20.366 86.458 20.2193 86.8833 19.926C87.3233 19.6327 87.6167 19.2147 87.7633 18.672H90.7333C90.4693 19.904 89.8607 20.894 88.9073 21.642C87.954 22.39 86.7807 22.764 85.3873 22.764ZM98.4687 22.764C97.4127 22.764 96.4594 22.522 95.6087 22.038C94.7727 21.554 94.1054 20.8867 93.6067 20.036C93.1227 19.1707 92.8807 18.1733 92.8807 17.044C92.8807 15.9147 93.1301 14.9247 93.6287 14.074C94.1274 13.2087 94.7947 12.534 95.6307 12.05C96.4814 11.566 97.4347 11.324 98.4907 11.324C99.5321 11.324 100.471 11.566 101.307 12.05C102.157 12.534 102.825 13.2087 103.309 14.074C103.807 14.9247 104.057 15.9147 104.057 17.044C104.057 18.1733 103.807 19.1707 103.309 20.036C102.825 20.8867 102.157 21.554 101.307 22.038C100.456 22.522 99.5101 22.764 98.4687 22.764ZM98.4687 20.322C99.2021 20.322 99.8401 20.0507 100.383 19.508C100.925 18.9507 101.197 18.1293 101.197 17.044C101.197 15.9587 100.925 15.1447 100.383 14.602C99.8401 14.0447 99.2094 13.766 98.4907 13.766C97.7427 13.766 97.0974 14.0447 96.5547 14.602C96.0267 15.1447 95.7627 15.9587 95.7627 17.044C95.7627 18.1293 96.0267 18.9507 96.5547 19.508C97.0974 20.0507 97.7354 20.322 98.4687 20.322ZM108.093 9.894C107.579 9.894 107.154 9.74 106.817 9.432C106.494 9.124 106.333 8.73533 106.333 8.266C106.333 7.79667 106.494 7.41533 106.817 7.122C107.154 6.814 107.579 6.66 108.093 6.66C108.606 6.66 109.024 6.814 109.347 7.122C109.684 7.41533 109.853 7.79667 109.853 8.266C109.853 8.73533 109.684 9.124 109.347 9.432C109.024 9.74 108.606 9.894 108.093 9.894ZM106.685 22.5V11.588H109.501V22.5H106.685ZM112.44 22.5V11.588H114.926L115.146 13.436C115.483 12.7907 115.967 12.2773 116.598 11.896C117.243 11.5147 117.998 11.324 118.864 11.324C120.213 11.324 121.262 11.7493 122.01 12.6C122.758 13.4507 123.132 14.6973 123.132 16.34V22.5H120.316V16.604C120.316 15.6653 120.125 14.9467 119.744 14.448C119.362 13.9493 118.768 13.7 117.962 13.7C117.17 13.7 116.517 13.9787 116.004 14.536C115.505 15.0933 115.256 15.8707 115.256 16.868V22.5H112.44Z" fill="#888888"/>
<defs>
<clipPath id="clip0_3_252">
<rect width="27" height="27" fill="white" transform="translate(0.5 1.5)"/>
</clipPath>
</defs>
</svg>
