<svg width="25" height="24" viewBox="0 0 25 24" fill="none" xmlns="http://www.w3.org/2000/svg">
<path d="M13.6703 22C9.1673 22 5.2253 18.96 4.0603 14.587C2.8953 10.214 4.7973 5.599 8.6983 3.337C10.5946 2.23718 12.8021 1.79741 14.975 2.08659C17.148 2.37576 19.1637 3.37754 20.7063 4.935L17.3713 8.302C16.8886 7.81818 16.315 7.43457 15.6835 7.17322C15.052 6.91187 14.375 6.77795 13.6916 6.77916C13.0082 6.78037 12.3317 6.91668 11.7011 7.18026C11.0705 7.44384 10.4983 7.82948 10.0173 8.315C9.04237 9.29825 8.49536 10.6268 8.49536 12.0115C8.49536 13.3962 9.04237 14.7247 10.0173 15.708C10.4983 16.1935 11.0705 16.5792 11.7011 16.8427C12.3317 17.1063 13.0082 17.2426 13.6916 17.2438C14.375 17.245 15.052 17.1111 15.6835 16.8498C16.315 16.5884 16.8886 16.2048 17.3713 15.721L20.7203 19.088C19.7961 20.0155 18.6972 20.7504 17.487 21.2502C16.2769 21.7501 14.9796 22.0049 13.6703 22Z" stroke="white" stroke-width="2" stroke-linecap="round" stroke-linejoin="round"/>
</svg>
