<svg width="28" height="26" viewBox="0 0 28 26" fill="none" xmlns="http://www.w3.org/2000/svg">
<g clip-path="url(#clip0_68_546)">
<path d="M27.0945 0L15.509 8.80522L17.6634 3.61606L27.0945 0Z" fill="#EBEBEB"/>
<path d="M1.37312 0.0104008L10.7789 3.61671L12.8246 8.87391L1.37312 0.0104008ZM22.432 18.7263L27.5526 18.8264L25.763 25.0709L19.5147 23.3039L22.432 18.7263ZM6.00826 18.7263L8.91466 23.3039L2.67692 25.071L0.898193 18.8264L6.00826 18.7263Z" fill="#E3E3E3"/>
<path d="M12.5464 7.5348L12.7557 14.4771L6.4939 14.1845L8.27505 11.4244L8.29762 11.3979L12.5464 7.5348ZM15.8289 7.45734L20.1426 11.3981L20.165 11.4245L21.9461 14.1846L15.6857 14.4771L15.8289 7.45734ZM9.09803 18.7464L12.5171 21.4828L8.54537 23.4524L9.09803 18.7464ZM19.3428 18.746L19.884 23.4525L15.9233 21.4826L19.3428 18.746Z" fill="#E3E3E3"/>
<path d="M16.0108 21.2249L20.0299 23.2239L16.2913 25.0488L16.3301 23.8427L16.0108 21.2249ZM12.4283 21.2258L12.1215 23.8229L12.1467 25.0474L8.39941 23.2239L12.4283 21.2258Z" fill="#CBCBCB"/>
<path d="M11.2679 15.3832L12.3181 17.6504L8.74243 16.5745L11.2679 15.3832ZM17.1725 15.3834L19.7099 16.5745L16.1225 17.6501L17.1725 15.3834Z" fill="#233447"/>
<path d="M9.37146 18.7233L8.79349 23.6026L5.69556 18.83L9.37146 18.7233ZM19.0693 18.7234L22.7453 18.83L19.6358 23.6028L19.0693 18.7234ZM22.0368 13.9086L19.3616 16.7091L17.2989 15.7409L16.3114 17.8734L15.664 14.2064L22.0368 13.9086ZM6.40241 13.9086L12.7764 14.2064L12.1289 17.8734L11.1412 15.7413L9.08954 16.7092L6.40241 13.9086Z" fill="#E3E3E3"/>
<path d="M6.22217 13.3339L9.24891 16.4887L9.35375 19.6031L6.22217 13.3339ZM22.2215 13.3283L19.0842 19.6087L19.2023 16.4887L22.2215 13.3283ZM12.6284 13.5261L12.7503 14.3137L13.0513 16.2757L12.8577 22.3017L11.9428 17.4608L11.9425 17.4108L12.6284 13.5261ZM15.8105 13.5151L16.4983 17.4108L16.498 17.4608L15.5807 22.3139L15.5444 21.1L15.4013 16.2399L15.8105 13.5151Z" fill="#FFFCFC"/>
<path d="M19.4713 16.3633L19.3689 19.0693L16.1759 21.6245L15.5305 21.1561L16.254 17.3281L19.4713 16.3633ZM8.98022 16.3633L12.1864 17.3281L12.9099 21.1561L12.2644 21.6245L9.07135 19.0691L8.98022 16.3633Z" fill="#EEEEEE"/>
<path d="M7.78857 22.6263L11.8736 24.6144L11.8563 23.7654L12.1981 23.4572H16.2412L16.5953 23.7643L16.5692 24.6127L20.6283 22.6313L18.6531 24.3078L16.2648 25.9927H12.1653L9.77856 24.3009L7.78857 22.6263Z" fill="#F0F0F0"/>
<path d="M15.7183 20.9602L16.2958 21.3794L16.6343 24.1531L16.1445 23.7284H12.2974L11.8169 24.1617L12.1443 21.3796L12.722 20.9602H15.7183Z" fill="#D8D8D8"/>
<path d="M26.3295 0.24375L27.7202 4.52909L26.8517 8.8621L27.4701 9.35209L26.6333 10.0079L27.2623 10.5069L26.4294 11.2859L26.9407 11.6663L25.5837 13.2941L20.0181 11.6296L19.9699 11.603L15.9593 8.12792L26.3295 0.24375ZM2.11093 0.24375L12.4812 8.12792L8.47048 11.603L8.42228 11.6296L2.8567 13.2941L1.49973 11.6663L2.01063 11.2863L1.17827 10.5069L1.80602 10.0085L0.95657 9.35079L1.59835 8.86047L0.720215 4.52931L2.11093 0.24375Z" fill="#D1D1D1"/>
<path d="M19.746 11.2656L25.6431 13.0291L27.5589 19.0943H22.5045L19.0219 19.1394L21.5546 14.0685L19.746 11.2656ZM8.6946 11.2656L6.8857 14.0685L9.41874 19.1394L5.93775 19.0943H0.892334L2.79742 13.0293L8.6946 11.2656ZM17.9522 3.58713L16.3028 8.16302L15.9527 14.3445L15.8188 16.2821L15.8081 21.2316H12.6324L12.622 16.2914L12.4877 14.3429L12.1375 8.16302L10.4883 3.58713H17.9522Z" fill="#EEEEEE"/>
</g>
<defs>
<clipPath id="clip0_68_546">
<rect width="27" height="26" fill="white" transform="translate(0.720215)"/>
</clipPath>
</defs>
</svg>
