<svg width="40" height="41" viewBox="0 0 40 41" fill="none" xmlns="http://www.w3.org/2000/svg">
<path d="M20 40.5C31.046 40.5 40 31.546 40 20.5V6.5C40 4.9087 39.3678 3.38258 38.2426 2.25736C37.1174 1.13214 35.5913 0.5 34 0.5L21 0.5V9.274C21 11.276 21.122 13.35 22.172 15.054C22.9237 16.2752 23.9292 17.3204 25.1205 18.1188C26.3117 18.9171 27.6607 19.4499 29.076 19.681L29.459 19.743C29.6169 19.797 29.754 19.899 29.851 20.0347C29.9481 20.1704 30.0002 20.3331 30.0002 20.5C30.0002 20.6669 29.9481 20.8296 29.851 20.9653C29.754 21.101 29.6169 21.203 29.459 21.257L29.076 21.319C27.0082 21.6568 25.0987 22.6356 23.6171 24.1171C22.1355 25.5987 21.1568 27.5082 20.819 29.576L20.757 29.959C20.703 30.1169 20.601 30.254 20.4653 30.351C20.3295 30.4481 20.1669 30.5003 20 30.5003C19.8331 30.5003 19.6704 30.4481 19.5347 30.351C19.399 30.254 19.297 30.1169 19.243 29.959L19.181 29.576C18.9499 28.1607 18.417 26.8118 17.6187 25.6205C16.8204 24.4293 15.7752 23.4237 14.554 22.672C12.85 21.622 10.776 21.5 8.77399 21.5H0.0239868C0.546987 32.081 9.28999 40.5 20 40.5Z" fill="url(#paint0_linear_3_190)"/>
<path d="M8.774 19.5H0V6.5C0 4.9087 0.632141 3.38258 1.75736 2.25736C2.88258 1.13214 4.4087 0.5 6 0.5H19V9.274C19 11.276 18.878 13.35 17.828 15.054C17.0073 16.386 15.886 17.5073 14.554 18.328C12.85 19.378 10.776 19.5 8.774 19.5Z" fill="url(#paint1_linear_3_190)"/>
<defs>
<linearGradient id="paint0_linear_3_190" x1="40" y1="0.5" x2="-1.01856e-05" y2="44.7623" gradientUnits="userSpaceOnUse">
<stop stop-color="#53F1FB"/>
<stop offset="0.523344" stop-color="#F78BBE"/>
<stop offset="1" stop-color="#F4D634"/>
</linearGradient>
<linearGradient id="paint1_linear_3_190" x1="40" y1="0.5" x2="-1.01856e-05" y2="44.7623" gradientUnits="userSpaceOnUse">
<stop stop-color="#53F1FB"/>
<stop offset="0.523344" stop-color="#F78BBE"/>
<stop offset="1" stop-color="#F4D634"/>
</linearGradient>
</defs>
</svg>
