<svg width="35" height="22" viewBox="0 0 35 22" fill="none" xmlns="http://www.w3.org/2000/svg">
<path d="M35 11C27 11 25.5 0 25.5 0C25.5 0 24 11.5 16 11.5C24 11.5 26 17.6667 26 21.5C26.3333 17.6667 27 11 35 11Z" fill="url(#paint0_linear_28_295)"/>
<path d="M10 15.6279C5.78947 15.6279 5 10 5 10C5 10 4.21053 15.8837 0 15.8837C4.21053 15.8837 5.26316 19.0388 5.26316 21C5.43859 19.0388 5.78947 15.6279 10 15.6279Z" fill="url(#paint1_linear_28_295)"/>
<defs>
<linearGradient id="paint0_linear_28_295" x1="35" y1="0" x2="13.3951" y2="21.1272" gradientUnits="userSpaceOnUse">
<stop stop-color="#53F1FB"/>
<stop offset="0.523344" stop-color="#F78BBE"/>
<stop offset="1" stop-color="#F4D634"/>
</linearGradient>
<linearGradient id="paint1_linear_28_295" x1="10" y1="10" x2="-1.05624" y2="21.1222" gradientUnits="userSpaceOnUse">
<stop stop-color="#53F1FB"/>
<stop offset="0.523344" stop-color="#F78BBE"/>
<stop offset="1" stop-color="#F4D634"/>
</linearGradient>
</defs>
</svg>
